<svg id="Layer_1" data-name="Layer 1" xmlns="http://www.w3.org/2000/svg" viewBox="0 0 363.5 363.5"><defs><style>.cls-1{fill:#fff;}</style></defs><path class="cls-1" d="M660,443H427a1,1,0,0,1-1-1V209a1,1,0,0,1,1-1H660a1,1,0,0,1,1,1V442A1,1,0,0,1,660,443Zm-232-2H659V210H428Z" transform="translate(-297.5 -208)"/><path class="cls-1" d="M298.5,338.5a1,1,0,0,1-.71-.29,1,1,0,0,1,0-1.42l128.5-128.5a1,1,0,0,1,1.42,1.42l-128.5,128.5A1,1,0,0,1,298.5,338.5Z" transform="translate(-297.5 -208)"/><path class="cls-1" d="M298.5,571.5a1,1,0,0,1-.71-.29,1,1,0,0,1,0-1.42l128.5-128.5a1,1,0,0,1,1.42,1.42l-128.5,128.5A1,1,0,0,1,298.5,571.5Z" transform="translate(-297.5 -208)"/><path class="cls-1" d="M531.5,338.5a1,1,0,0,1-.71-.29,1,1,0,0,1,0-1.42l128.5-128.5a1,1,0,0,1,1.42,1.42l-128.5,128.5A1,1,0,0,1,531.5,338.5Z" transform="translate(-297.5 -208)"/><path class="cls-1" d="M531.5,571.5a1,1,0,0,1-.71-.29,1,1,0,0,1,0-1.42l128.5-128.5a1,1,0,0,1,1.42,1.42l-128.5,128.5A1,1,0,0,1,531.5,571.5Z" transform="translate(-297.5 -208)"/><path class="cls-1" d="M531.5,571.5h-233a1,1,0,0,1-1-1v-233a1,1,0,0,1,1-1h233a1,1,0,0,1,1,1v233A1,1,0,0,1,531.5,571.5Zm-232-2h231v-231h-231Z" transform="translate(-297.5 -208)"/></svg>