<svg xmlns="http://www.w3.org/2000/svg" xmlns:xlink="http://www.w3.org/1999/xlink" viewBox="0 0 423.05 228.26"><defs><style>.cls-1,.cls-2{fill:none;}.cls-2{stroke:#fff;stroke-miterlimit:10;}.cls-3{clip-path:url(#clip-path);}</style><clipPath id="clip-path" transform="translate(186.08 6.45)"><rect class="cls-1" x="22.38" y="22.71" width="103.86" height="103.86"/></clipPath></defs><g id="Layer_2" data-name="Layer 2"><g id="Layer_1-2" data-name="Layer 1"><line class="cls-2" x1="204.28" y1="6.45" x2="204.28" y2="150.73"/><line class="cls-2" x1="330.35" y1="24.65" x2="186.08" y2="24.65"/><line class="cls-2" x1="330.35" y1="137.87" x2="186.08" y2="137.87"/><line class="cls-2" x1="316.83" y1="6.45" x2="316.83" y2="150.73"/><g class="cls-3"><line class="cls-2" x1="150.99" y1="0.28" x2="0.42" y2="227.98"/><line class="cls-2" x1="161.44" y1="0.28" x2="10.86" y2="227.98"/><line class="cls-2" x1="171.89" y1="0.28" x2="21.31" y2="227.98"/><line class="cls-2" x1="182.33" y1="0.28" x2="31.76" y2="227.98"/><line class="cls-2" x1="192.78" y1="0.28" x2="42.21" y2="227.98"/><line class="cls-2" x1="203.23" y1="0.28" x2="52.66" y2="227.98"/><line class="cls-2" x1="213.68" y1="0.28" x2="63.1" y2="227.98"/><line class="cls-2" x1="224.13" y1="0.28" x2="73.55" y2="227.98"/><line class="cls-2" x1="234.57" y1="0.28" x2="84" y2="227.98"/><line class="cls-2" x1="245.02" y1="0.28" x2="94.45" y2="227.98"/><line class="cls-2" x1="255.47" y1="0.28" x2="104.9" y2="227.98"/><line class="cls-2" x1="265.92" y1="0.28" x2="115.34" y2="227.98"/><line class="cls-2" x1="276.37" y1="0.28" x2="125.79" y2="227.98"/><line class="cls-2" x1="286.81" y1="0.28" x2="136.24" y2="227.98"/><line class="cls-2" x1="297.26" y1="0.28" x2="146.69" y2="227.98"/><line class="cls-2" x1="307.71" y1="0.28" x2="157.14" y2="227.98"/><line class="cls-2" x1="318.16" y1="0.28" x2="167.58" y2="227.98"/><line class="cls-2" x1="328.61" y1="0.28" x2="178.03" y2="227.98"/><line class="cls-2" x1="339.05" y1="0.28" x2="188.48" y2="227.98"/><line class="cls-2" x1="349.5" y1="0.28" x2="198.93" y2="227.98"/><line class="cls-2" x1="359.95" y1="0.28" x2="209.38" y2="227.98"/><line class="cls-2" x1="370.4" y1="0.28" x2="219.82" y2="227.98"/><line class="cls-2" x1="380.84" y1="0.28" x2="230.27" y2="227.98"/><line class="cls-2" x1="391.29" y1="0.28" x2="240.72" y2="227.98"/><line class="cls-2" x1="401.74" y1="0.28" x2="251.17" y2="227.98"/><line class="cls-2" x1="412.19" y1="0.28" x2="261.62" y2="227.98"/><line class="cls-2" x1="422.64" y1="0.28" x2="272.06" y2="227.98"/></g></g></g></svg>