<svg xmlns="http://www.w3.org/2000/svg" viewBox="0 0 340.59 235.63">
<defs>
<style>
.cls-1{fill:none;}.cls-2{fill:#fff;}
</style>
</defs>
<g id="Layer_2" data-name="Layer 2">
<g id="Layer_1-2" data-name="Layer 1">
<path class="cls-1" d="M142.6,21.09,71.43,146.56l175.86,9.16L318.46,30.25ZM256.5,31.71,82.7,142.08,81,142,254.77,31.62ZM139.83,36.88l16.37-10.4,1.72.09L138.78,38.73Zm-10,17.65,42.81-27.19,1.72.09-45.58,29Zm-10,17.64,69.25-44,1.72.09L118.76,74Zm-10,17.65,95.69-60.77,1.72.09L108.75,91.67Zm-10,17.64L221.92,29.91l1.72.09L98.74,109.32Zm138.56-76.7,1.72.09L88.73,127l1-1.85ZM97.41,142.85,271.2,32.47l1.73.09L99.13,142.94Zm16.43.85L287.63,33.33l1.72.09L115.56,143.79Zm16.43.86L304.06,34.19l1.72.09L132,144.65Zm121.2-8.05-20.91,13.28-1.72-.09,23.68-15Zm10-17.65-47.35,30.07-1.72-.09L262.53,117Zm10-17.64L197.7,148.07,196,148l76.55-48.61Zm10-17.65L181.28,147.22l-1.73-.09,103-65.41Zm10-17.65L164.85,146.36l-1.73-.09,129.43-82.2Zm10-17.64L148.42,145.51l-1.72-.09,155.86-99Z"/><path class="cls-1" d="M54.81,175.87,29.48,220.53l175.86,9.16L230.67,185Zm122.37,12.94-42.07,32.37-1.53-.08,42.06-32.37ZM63.34,182.88l1.54.08-14,10.79,1.27-2.24Zm-20.5,25,31.73-24.42,1.54.08L41.57,210.12Zm.9,8.54L85.8,184.05l1.54.08L45.27,216.5ZM55,217,97,184.63l1.54.08L56.5,217.08Zm53.29-31.78,1.54.08L67.73,217.67l-1.53-.08ZM77.42,218.17l42.07-32.37,1.54.08L79,218.25Zm11.24.59,42.06-32.37,1.54.08L90.19,218.84Zm11.22.58L142,187l1.54.08-42.07,32.37Zm11.24.59,42.06-32.37,1.54.08L112.65,220Zm11.22.58,42.07-32.37,1.54.08-42.07,32.37Zm22.47,1.17,42.06-32.37,1.54.08-42.07,32.37Zm11.22.59L198.1,189.9l1.54.08-42.07,32.37Zm11.23.58,42.07-32.37,1.54.08L168.8,222.93Zm11.23.59,42-32.32-1.27,2.23L180,223.52Zm23,1.19-.53,0,1-.75Zm8.46-14.9L191.26,224.1l-1.54-.08,21.49-16.53Z"/><polygon class="cls-2" points="142.6 21.09 141.48 21.03 70.32 146.5 71.43 146.56 142.6 21.09"/><polygon class="cls-2" points="154.28 0.49 153.41 0 142.03 20.06 143.15 20.12 154.28 0.49"/><polygon class="cls-2" points="62.02 161.13 62.89 161.63 70.88 147.53 69.77 147.48 62.02 161.13"/><polygon class="cls-2" points="340.54 31.4 340.59 30.4 320.13 29.34 319.57 30.31 340.54 31.4"/><polygon class="cls-2" points="318.46 30.25 319.01 29.28 143.15 20.12 142.03 20.06 113.72 18.58 113.67 19.58 141.48 21.03 142.6 21.09 318.46 30.25"/><polygon class="cls-2" points="268.82 157.85 268.87 156.85 248.41 155.78 247.86 156.76 268.82 157.85"/><polygon class="cls-2" points="71.43 146.56 70.32 146.5 42 145.03 41.95 146.03 69.77 147.48 70.88 147.53 246.74 156.7 247.29 155.72 71.43 146.56"/><polygon class="cls-2" points="319.57 30.31 320.13 29.34 331.26 9.71 330.39 9.22 319.01 29.28 318.46 30.25 247.29 155.72 246.74 156.7 239 170.35 239.87 170.85 247.86 156.76 248.41 155.78 319.57 30.31"/><polygon class="cls-2" points="156.2 26.48 139.83 36.88 138.78 38.73 157.92 26.57 156.2 26.48"/><polygon class="cls-2" points="172.63 27.34 129.82 54.53 128.77 56.38 174.35 27.43 172.63 27.34"/><polygon class="cls-2" points="189.06 28.19 119.81 72.17 118.76 74.02 190.78 28.28 189.06 28.19"/><polygon class="cls-2" points="205.49 29.05 109.8 89.82 108.75 91.67 207.21 29.14 205.49 29.05"/><polygon class="cls-2" points="221.91 29.91 99.79 107.47 98.74 109.32 223.64 30 221.91 29.91"/><polygon class="cls-2" points="88.73 126.96 240.07 30.85 238.34 30.76 89.78 125.11 88.73 126.96"/><polygon class="cls-2" points="80.98 141.99 82.7 142.08 256.5 31.71 254.77 31.62 80.98 141.99"/><polygon class="cls-2" points="272.93 32.56 271.2 32.47 97.41 142.85 99.13 142.94 272.93 32.56"/><polygon class="cls-2" points="289.35 33.42 287.63 33.33 113.84 143.7 115.56 143.79 289.35 33.42"/><polygon class="cls-2" points="305.78 34.27 304.06 34.19 130.27 144.56 131.99 144.65 305.78 34.27"/><polygon class="cls-2" points="146.7 145.42 148.42 145.5 301.51 48.28 302.56 46.43 146.7 145.42"/><polygon class="cls-2" points="164.85 146.36 291.5 65.92 292.55 64.07 163.12 146.27 164.85 146.36"/><polygon class="cls-2" points="179.55 147.13 181.28 147.22 281.49 83.57 282.54 81.72 179.55 147.13"/><polygon class="cls-2" points="197.71 148.07 271.49 101.22 272.54 99.37 195.98 147.98 197.71 148.07"/><polygon class="cls-2" points="212.41 148.84 214.13 148.93 261.48 118.86 262.53 117.01 212.41 148.84"/><polygon class="cls-2" points="230.56 149.78 251.47 136.51 252.52 134.66 228.84 149.69 230.56 149.78"/><polygon class="cls-2" points="29.48 220.53 54.81 175.88 53.69 175.82 28.36 220.47 29.48 220.53"/><polygon class="cls-2" points="59.12 168.27 58.25 167.78 54.24 174.84 55.36 174.9 59.12 168.27"/><polygon class="cls-2" points="27.81 221.44 25.27 225.92 26.14 226.41 28.93 221.5 27.81 221.44"/><polygon class="cls-2" points="230.67 185.04 231.22 184.06 55.36 174.9 54.24 174.84 25.93 173.37 25.88 174.37 53.69 175.82 54.81 175.88 230.67 185.04"/><polygon class="cls-2" points="252.74 186.19 252.8 185.19 232.34 184.12 231.78 185.09 252.74 186.19"/><polygon class="cls-2" points="206.46 229.75 205.91 230.72 226.87 231.81 226.92 230.81 206.46 229.75"/><polygon class="cls-2" points="29.48 220.53 28.36 220.47 0.05 218.99 0 219.99 27.81 221.44 28.93 221.5 204.79 230.66 205.34 229.69 29.48 220.53"/><polygon class="cls-2" points="231.78 185.09 232.34 184.12 236.1 177.49 235.23 177 231.22 184.06 230.67 185.04 205.34 229.69 204.79 230.66 202.25 235.14 203.12 235.63 205.91 230.72 206.46 229.75 231.78 185.09"/><polygon class="cls-2" points="64.88 182.96 63.34 182.88 52.13 191.51 50.85 193.75 64.88 182.96"/><polygon class="cls-2" points="74.57 183.46 42.84 207.88 41.57 210.12 76.11 183.54 74.57 183.46"/><polygon class="cls-2" points="87.34 184.13 85.8 184.04 43.74 216.41 45.27 216.5 87.34 184.13"/><polygon class="cls-2" points="98.57 184.71 97.03 184.63 54.97 217 56.5 217.08 98.57 184.71"/><polygon class="cls-2" points="109.8 185.3 108.26 185.22 66.2 217.59 67.73 217.66 109.8 185.3"/><polygon class="cls-2" points="119.49 185.8 77.42 218.17 78.96 218.25 121.03 185.88 119.49 185.8"/><polygon class="cls-2" points="132.26 186.47 130.72 186.39 88.66 218.75 90.19 218.84 132.26 186.47"/><polygon class="cls-2" points="143.49 187.05 141.95 186.97 99.89 219.34 101.42 219.42 143.49 187.05"/><polygon class="cls-2" points="153.18 187.56 111.11 219.93 112.65 220.01 154.72 187.64 153.18 187.56"/><polygon class="cls-2" points="165.95 188.22 164.41 188.14 122.34 220.51 123.88 220.59 165.95 188.22"/><polygon class="cls-2" points="135.11 221.18 177.18 188.81 175.64 188.73 133.58 221.1 135.11 221.18"/><polygon class="cls-2" points="186.87 189.31 144.81 221.68 146.34 221.76 188.41 189.39 186.87 189.31"/><polygon class="cls-2" points="199.63 189.98 198.1 189.9 156.03 222.27 157.57 222.35 199.63 189.98"/><polygon class="cls-2" points="210.87 190.56 209.33 190.48 167.26 222.85 168.8 222.93 210.87 190.56"/><polygon class="cls-2" points="220.5 191.12 178.49 223.44 180.03 223.52 219.23 193.35 220.5 191.12"/><polygon class="cls-2" points="191.26 224.1 209.94 209.73 211.21 207.49 189.72 224.02 191.26 224.1"/><polygon class="cls-2" points="201.49 224.63 201.92 223.86 200.95 224.61 201.49 224.63"/></g></g>
</svg>