<svg xmlns="http://www.w3.org/2000/svg" viewBox="0 0 144.27 144.28"><defs><style>.cls-1{fill:none;}.cls-2{fill:#fff;}</style></defs><g id="Layer_2" data-name="Layer 2"><g id="Layer_1-2" data-name="Layer 1"><path class="cls-1" d="M18.7,130.92H130.25V18.7H18.7Zm107.54-16.76L118,126.57h-1.2l9.41-14.22Zm0-15.8-18.66,28.21h-1.2l19.86-30Zm0-15.8-29.11,44H95.94l30.3-45.82Zm0-15.8L86.69,126.57h-1.2L126.24,65Zm0-15.8-50,75.61H75l51.2-77.42Zm0-15.8L65.79,126.57h-1.2l61.65-93.22ZM124,22.71,55.34,126.57h-1.2L122.83,22.71Zm-10.44,0L44.89,126.57H43.7L112.38,22.71Zm-10.45,0L34.45,126.57h-1.2L101.93,22.71Zm-10.45,0L24,126.57H22.8L91.48,22.71Zm-10.45,0L22.38,113.23v-1.81L81,22.71Zm-10.44,0L22.38,97.43V95.62L70.59,22.71Zm-10.45,0-39,58.92V79.82L60.14,22.71Zm-10.45,0L22.38,65.83V64L49.69,22.71Zm-10.45,0L22.38,50V48.22L39.24,22.71ZM30,22.71,22.38,34.23V32.42l6.41-9.71Z"/><rect class="cls-2" x="17.7" y="131.92" width="1" height="12.36"/><rect class="cls-2" x="17.7" width="1" height="17.7"/><rect class="cls-2" x="17.7" y="18.7" width="1" height="112.22"/><polygon class="cls-2" points="0 17.7 0 18.7 17.7 18.7 18.7 18.7 130.25 18.7 130.25 17.7 18.7 17.7 17.7 17.7 0 17.7"/><rect class="cls-2" x="131.25" y="17.7" width="13.03" height="1"/><polygon class="cls-2" points="18.7 130.92 17.7 130.92 0 130.92 0 131.92 17.7 131.92 18.7 131.92 130.25 131.92 130.25 130.92 18.7 130.92"/><rect class="cls-2" x="131.25" y="130.92" width="13.03" height="1"/><polygon class="cls-2" points="130.25 130.92 130.25 131.92 130.25 144.28 131.25 144.28 131.25 131.92 131.25 130.92 131.25 18.7 131.25 17.7 131.25 0 130.25 0 130.25 17.7 130.25 18.7 130.25 130.92"/><polygon class="cls-2" points="22.38 34.23 29.99 22.71 28.8 22.71 22.38 32.42 22.38 34.23"/><polygon class="cls-2" points="22.38 50.03 40.44 22.71 39.24 22.71 22.38 48.22 22.38 50.03"/><polygon class="cls-2" points="22.38 65.83 50.89 22.71 49.69 22.71 22.38 64.02 22.38 65.83"/><polygon class="cls-2" points="22.38 81.63 61.34 22.71 60.14 22.71 22.38 79.82 22.38 81.63"/><polygon class="cls-2" points="22.38 97.43 71.79 22.71 70.59 22.71 22.38 95.62 22.38 97.43"/><polygon class="cls-2" points="22.38 113.23 82.23 22.71 81.03 22.71 22.38 111.42 22.38 113.23"/><polygon class="cls-2" points="24 126.58 92.68 22.71 91.48 22.71 22.8 126.58 24 126.58"/><polygon class="cls-2" points="34.45 126.58 103.13 22.71 101.93 22.71 33.25 126.58 34.45 126.58"/><polygon class="cls-2" points="44.9 126.58 113.58 22.71 112.38 22.71 43.7 126.58 44.9 126.58"/><polygon class="cls-2" points="55.34 126.58 124.03 22.71 122.83 22.71 54.14 126.58 55.34 126.58"/><polygon class="cls-2" points="65.79 126.58 126.24 35.16 126.24 33.35 64.59 126.58 65.79 126.58"/><polygon class="cls-2" points="76.24 126.58 126.24 50.96 126.24 49.15 75.04 126.58 76.24 126.58"/><polygon class="cls-2" points="86.69 126.58 126.24 66.76 126.24 64.95 85.49 126.58 86.69 126.58"/><polygon class="cls-2" points="97.13 126.58 126.24 82.56 126.24 80.75 95.94 126.58 97.13 126.58"/><polygon class="cls-2" points="107.58 126.58 126.24 98.36 126.24 96.55 106.38 126.58 107.58 126.58"/><polygon class="cls-2" points="118.03 126.58 126.24 114.16 126.24 112.35 116.83 126.58 118.03 126.58"/></g></g></svg>