<svg xmlns="http://www.w3.org/2000/svg" viewBox="0 0 104.6 174.61"><defs><style>.cls-1{fill:none;}.cls-2{fill:#fff;}</style></defs><g id="Layer_2" data-name="Layer 2"><g id="Layer_1-2" data-name="Layer 1"><polygon class="cls-1" points="69.25 46.15 69.25 97.23 74.49 91.99 75.2 92.69 69.25 98.64 69.25 102.77 68.25 102.77 68.25 99.64 37.33 130.56 37.33 167.79 97.66 107.47 97.66 17.74 69.25 46.15"/><polygon class="cls-1" points="37.33 78.07 37.33 129.15 68.25 98.23 68.25 47.15 37.33 78.07"/><polygon class="cls-1" points="30.11 85.29 29.4 84.58 36.33 77.66 36.33 70.85 37.33 70.85 37.33 76.66 68.25 45.73 68.25 8.5 7.09 69.67 7.09 159.39 36.33 130.15 36.33 79.07 30.11 85.29"/><polygon class="cls-2" points="97.66 107.47 98.66 106.47 98.66 16.74 97.66 17.74 97.66 107.47"/><polygon class="cls-2" points="98.66 9.24 97.66 9.24 97.66 16.33 98.66 15.33 98.66 9.24"/><polygon class="cls-2" points="97.66 108.88 97.66 112.02 98.66 112.02 98.66 107.88 97.66 108.88"/><polygon class="cls-2" points="30.11 85.29 36.33 79.07 36.33 77.66 29.4 84.58 30.11 85.29"/><polygon class="cls-2" points="37.33 78.07 68.25 47.15 68.25 45.73 37.33 76.66 37.33 78.07"/><polygon class="cls-2" points="97.66 17.74 98.66 16.74 102.78 12.62 102.08 11.91 98.66 15.33 97.66 16.33 69.25 44.73 69.25 46.15 97.66 17.74"/><polygon class="cls-2" points="104.6 101.94 103.9 101.23 98.66 106.47 97.66 107.47 37.33 167.79 37.33 169.21 97.66 108.88 98.66 107.88 104.6 101.94"/><polygon class="cls-2" points="31.23 173.9 31.93 174.61 36.33 170.21 36.33 168.79 31.23 173.9"/><polygon class="cls-2" points="68.25 45.73 68.25 47.15 68.25 98.23 69.25 97.23 69.25 46.15 69.25 44.73 69.25 7.5 68.25 8.5 68.25 45.73"/><polygon class="cls-2" points="69.25 0 68.25 0 68.25 7.09 69.25 6.09 69.25 0"/><polygon class="cls-2" points="69.25 102.77 69.25 98.64 68.25 99.64 68.25 102.77 69.25 102.77"/><polygon class="cls-2" points="7.09 69.67 6.09 70.67 6.09 160.39 7.09 159.39 7.09 69.67"/><polygon class="cls-2" points="6.09 166.62 7.09 166.62 7.09 160.81 6.09 161.81 6.09 166.62"/><polygon class="cls-2" points="7.09 63.85 6.09 63.85 6.09 69.25 7.09 68.25 7.09 63.85"/><polygon class="cls-2" points="37.33 130.56 36.33 131.56 36.33 168.79 36.33 170.21 36.33 173.62 37.33 173.62 37.33 169.21 37.33 167.79 37.33 130.56"/><polygon class="cls-2" points="37.33 76.66 37.33 70.85 36.33 70.85 36.33 77.66 36.33 79.07 36.33 130.15 37.33 129.15 37.33 78.07 37.33 76.66"/><polygon class="cls-2" points="68.25 8.5 69.25 7.5 73.38 3.38 72.67 2.67 69.25 6.09 68.25 7.09 7.09 68.25 6.09 69.25 0 75.34 0.71 76.05 6.09 70.67 7.09 69.67 68.25 8.5"/><polygon class="cls-2" points="68.25 99.64 69.25 98.64 75.2 92.69 74.49 91.99 69.25 97.23 68.25 98.23 37.33 129.15 36.33 130.15 7.09 159.39 6.09 160.39 1.82 164.66 2.53 165.37 6.09 161.81 7.09 160.81 36.33 131.56 37.33 130.56 68.25 99.64"/></g></g></svg>