<svg id="Layer_1" data-name="Layer 1" xmlns="http://www.w3.org/2000/svg" viewBox="0 0 362.5 362.5"><defs><style>.cls-1{fill:#fff;}</style></defs><path class="cls-1" d="M660,442.5H427a.5.5,0,0,1-.5-.5V209a.5.5,0,0,1,.5-.5H660a.5.5,0,0,1,.5.5V442A.5.5,0,0,1,660,442.5Zm-232.5-1h232v-232h-232Z" transform="translate(-298 -208.5)"/><path class="cls-1" d="M298.5,338a.47.47,0,0,1-.35-.15.48.48,0,0,1,0-.7l128.5-128.5a.49.49,0,1,1,.7.7l-128.5,128.5A.47.47,0,0,1,298.5,338Z" transform="translate(-298 -208.5)"/><path class="cls-1" d="M298.5,571a.47.47,0,0,1-.35-.15.48.48,0,0,1,0-.7l128.5-128.5a.49.49,0,0,1,.7.7l-128.5,128.5A.47.47,0,0,1,298.5,571Z" transform="translate(-298 -208.5)"/><path class="cls-1" d="M531.5,338a.47.47,0,0,1-.35-.15.48.48,0,0,1,0-.7l128.5-128.5a.49.49,0,1,1,.7.7l-128.5,128.5A.47.47,0,0,1,531.5,338Z" transform="translate(-298 -208.5)"/><path class="cls-1" d="M531.5,571a.47.47,0,0,1-.35-.15.48.48,0,0,1,0-.7l128.5-128.5a.49.49,0,0,1,.7.7l-128.5,128.5A.47.47,0,0,1,531.5,571Z" transform="translate(-298 -208.5)"/><path class="cls-1" d="M531.5,571h-233a.5.5,0,0,1-.5-.5v-233a.5.5,0,0,1,.5-.5h233a.5.5,0,0,1,.5.5v233A.5.5,0,0,1,531.5,571ZM299,570H531V338H299Z" transform="translate(-298 -208.5)"/></svg>