<svg id="Layer_2" data-name="Layer 2" xmlns="http://www.w3.org/2000/svg" viewBox="0 0 445.65 332.35"><defs><style>.cls-1{fill:none;stroke:#fff;stroke-miterlimit:10;stroke-width:2px;}</style></defs><rect class="cls-1" x="1" y="1" width="443.65" height="330.35" rx="7.84"/><path class="cls-1" d="M383.11,491H354.29a7.83,7.83,0,0,1-7.83-7.84V470.45" transform="translate(-320.76 -254.62)"/><path class="cls-1" d="M704.06,491h28.81a7.84,7.84,0,0,0,7.84-7.84V470.45" transform="translate(-320.76 -254.62)"/><path class="cls-1" d="M704.06,274.5h28.81a7.84,7.84,0,0,1,7.84,7.84V295" transform="translate(-320.76 -254.62)"/><path class="cls-1" d="M383.11,274.5H354.29a7.83,7.83,0,0,0-7.83,7.84V295" transform="translate(-320.76 -254.62)"/><circle class="cls-1" cx="225.09" cy="130.44" r="95.55"/><path class="cls-1" d="M580.24,378.49l-47.71-27.55a7.59,7.59,0,0,0-11.39,6.58v55.09a7.59,7.59,0,0,0,11.39,6.57l47.71-27.54A7.59,7.59,0,0,0,580.24,378.49Z" transform="translate(-320.76 -254.62)"/><line class="cls-1" x1="25.7" y1="268" x2="419.95" y2="268"/><line class="cls-1" x1="25.7" y1="290.24" x2="419.95" y2="290.24"/><line class="cls-1" x1="25.7" y1="312.47" x2="419.95" y2="312.47"/></svg>