<svg id="Layer_1" data-name="Layer 1" xmlns="http://www.w3.org/2000/svg" viewBox="0 0 672.46 522.91"><defs><style>.cls-1{fill:#fff;}</style></defs><path class="cls-1" d="M209.34,343.23H262a1.47,1.47,0,0,1,1.47,1.47v90.54a1.47,1.47,0,0,1-1.47,1.47H221.59a1.47,1.47,0,0,0-1.47,1.47V463a1.37,1.37,0,0,0,.09.49l48.19,135.8a1.47,1.47,0,0,0,1.39,1h42.85a1.47,1.47,0,0,0,1.38-2l-47.2-129.69a1.47,1.47,0,0,1,1.38-2q20.1-.14,26.56-2.82,12.62-5.48,12.62-24.13V332.48q0-27.14-26.57-27.14H165.24a1.47,1.47,0,0,0-1.47,1.47V659.53a1.47,1.47,0,0,0,1.47,1.47H834.76a1.47,1.47,0,0,0,1.47-1.47V618.37a1.47,1.47,0,0,0-1.47-1.47H209.34a1.47,1.47,0,0,1-1.47-1.47V344.7A1.47,1.47,0,0,1,209.34,343.23Z" transform="translate(-163.77 -238.55)"/><path class="cls-1" d="M431.59,598.83V492.13a1.83,1.83,0,0,1,.05-.4q12.19-43.14,19.34-61.39l0-.08,38.93-123a1.41,1.41,0,0,0,.07-.45h0a1.47,1.47,0,0,0-1.47-1.47H445.9a1.49,1.49,0,0,0-1.42,1.08L411.14,428.34a1.47,1.47,0,0,1-2.84,0L374.78,306.42a1.49,1.49,0,0,0-1.42-1.08h-44.3a4.9,4.9,0,0,0-.05,1.6c0,.07.06.14.08.21L367.88,430.3q.75,2.44,10.75,30.53a250.29,250.29,0,0,1,8.64,30.95,1.53,1.53,0,0,1,0,.3V598.83a1.47,1.47,0,0,0,1.47,1.47h41.35A1.47,1.47,0,0,0,431.59,598.83Z" transform="translate(-163.77 -238.55)"/><path class="cls-1" d="M609.7,545.56l8.47,53.5a1.46,1.46,0,0,0,1.45,1.24h40.69a1.47,1.47,0,0,0,1.44-1.75L605.59,306.16a1.48,1.48,0,0,0-1.45-1.19H560.21a1.48,1.48,0,0,0-1.45,1.19L501.89,599.55v.75h42.28a1.47,1.47,0,0,0,1.45-1.24l8.47-53.5a1.46,1.46,0,0,1,1.45-1.24h52.71A1.47,1.47,0,0,1,609.7,545.56ZM583.24,382.32,603,504.74a1.47,1.47,0,0,1-1.45,1.7H561.85a1.47,1.47,0,0,1-1.45-1.7l19.94-122.42A1.47,1.47,0,0,1,583.24,382.32Z" transform="translate(-163.77 -238.55)"/><path class="cls-1" d="M793.26,238.55h-628a1.47,1.47,0,0,0-1.47,1.47v41.16a1.47,1.47,0,0,0,1.47,1.47H791.79a1.47,1.47,0,0,1,1.47,1.47v188a1.47,1.47,0,0,1-2.84.53L729.75,316.52l-4-10.24a1.45,1.45,0,0,0-1.36-.93H688.25a1.47,1.47,0,0,0-1.47,1.47v292a1.47,1.47,0,0,0,1.47,1.47h40a1.47,1.47,0,0,0,1.47-1.47V430.08a1.47,1.47,0,0,1,2.84-.53L793.26,588.9l4,10.45a1.47,1.47,0,0,0,1.37.95h36.15a1.47,1.47,0,0,0,1.47-1.47V240a1.47,1.47,0,0,0-1.47-1.47Z" transform="translate(-163.77 -238.55)"/><path class="cls-1" d="M202.64,754.27q0,7.18-7.18,7.18H170.75q-7,0-7-7.18V690.09q0-7.23,7.13-7.23h24.56q7.17,0,7.18,7.23v16.78h-11.8V693H175.52v58.4h15.32v-22H182.1v-10h20.54Z" transform="translate(-163.77 -238.55)"/><path class="cls-1" d="M277,761.45H264.77L251.82,725v-7.08h11.55V693H248.55v68.49H236.8V682.86H268q7.08,0,7.08,7.23v28.58c0,3.31-1.12,5.46-3.37,6.43-1.2.5-3.75.75-7.63.75Z" transform="translate(-163.77 -238.55)"/><path class="cls-1" d="M351.6,761.45H340l-2.36-14.91H322.88l-2.36,14.91h-11.6v-.2l15.21-78.49h12.36Zm-15.66-25L330.21,701l-5.77,35.46Z" transform="translate(-163.77 -238.55)"/><path class="cls-1" d="M422.52,725.65q0,7.33-7.19,7.33h-19v28.47H384.55V682.86h30.78q7.19,0,7.19,7.23Zm-11.86-2.76V693H396.3v29.93Z" transform="translate(-163.77 -238.55)"/><path class="cls-1" d="M495.78,761.45H483.92V726.2H468v35.25H456.25V682.86H468v32.39h15.91V682.86h11.86Z" transform="translate(-163.77 -238.55)"/><path class="cls-1" d="M541.8,761.45H530.05V682.86H541.8Z" transform="translate(-163.77 -238.55)"/><path class="cls-1" d="M614.79,754.27q0,7.18-7.18,7.18h-24.5q-7,0-7-7.18V690.09q0-7.23,7-7.23h24.5q7.18,0,7.18,7.23v18.38h-11.7V693H587.88v58.4h15.21V734.84h11.7Z" transform="translate(-163.77 -238.55)"/><path class="cls-1" d="M687.46,754.27q0,7.18-7.18,7.18H648.89V682.86h31.19q7,0,7,7.23v20.24a7.87,7.87,0,0,1-2.51,6.23q-.36.3-6.13,3.87,6,3.66,6.33,4a8.18,8.18,0,0,1,2.71,6.48Zm-12.1-42.48v-19H660.64v23h9Zm.3,39.77v-22.4l-5.78-3.81h-9.24v26.21Z" transform="translate(-163.77 -238.55)"/><path class="cls-1" d="M761.18,754.27q0,7.18-7.13,7.18H728.54q-7,0-7-7.18V690.09q0-7.23,7-7.23h25.51q7.13,0,7.13,7.23Zm-11.75-2.91V693H733.31v58.4Z" transform="translate(-163.77 -238.55)"/><path class="cls-1" d="M836.23,683.32l-10.39,32.84q-1.92,4.88-5.18,16.42v28.87h-11.8V732.58a65.09,65.09,0,0,0-2.31-8.29c-1.77-5-2.73-7.7-2.86-8.13l-10.34-32.84s0-.19,0-.46h12.1L814.84,717l9.34-34.15h12.05Z" transform="translate(-163.77 -238.55)"/></svg>